Top Gear: Vietnam Special is a special 75-minute episode of the motoring series Top Gear, which was broadcast on 28 December 2008 at 8:00 pm on BBC Two.[1] An edited 46 minute edition of the show was broadcast on the UKTV channel Dave in the 8.00pm - 9.00pm slot on Monday 19th January 2009. The edition was tightly edited to ensure the 75-minute special could fit into the one hour slot with commercial breaks on Dave. A "director's cut" was released on Region 2 DVD in March 2009 as part of the Top Gear: The Great Adventures 2 set.

The challenge, to travel 1000 miles (1600 kilometres) from Hồ Chí Minh City (Saigon), in the south of Vietnam to Hạ Long city, near Hanoi (Hà Nội) in the north in eight days, was undertaken by regular presenters Jeremy Clarkson, Richard Hammond and James May.[2] The destination for this challenge was a floating dock in Ha Long Bay.[3] The primary vehicles of this special were motorbikes.[2]

Unlike normal episodes of Top Gear, in which the challenges were related to the abilities of the vehicles reviewed, such as the Toyota Hilux in the Top Gear Polar Special, producer Andy Wilman admitted that "the narrative of the film is a bit more skewed towards the three guys.

 
http://en.wikipedia.org/wiki/index.html?curid=20847411

(((((Not mine- all credits to riVER))))
---------------------------------------
---------------------------------------

Format                           : AVI
Format/Info                      : Audio Video Interleave
File size                        : 700 MiB
Duration                         : 1h 13mn
Overall bit rate                 : 1 329 Kbps
Writing application              : MEncoder 1.0rc2-4.2.1
Writing library                  : MPlayer

Video
ID                               : 0
Format                           : MPEG-4 Visual
Format profile                   : Advanced Simple@L5
Format settings, BVOP            : Yes
Format settings, QPel            : No
Format settings, GMC             : No warppoints
Format settings, Matrix          : Default (H.263)
Muxing mode                      : Packed bitstream
Codec ID                         : XVID
Codec ID/Hint                    : XviD
Duration                         : 1h 13mn
Bit rate                         : 1 186 Kbps
Width                            : 640 pixels
Height                           : 352 pixels
Display aspect ratio             : 16/9
Frame rate                       : 25.000 fps
Resolution                       : 24 bits
Colorimetry                      : 4:2:0
Scan type                        : Progressive
Bits/(Pixel*Frame)               : 0.210
Stream size                      : 624 MiB (89%)
Writing library                  : XviD 1.2.1 (UTC 2008-12-04)

Audio
ID                               : 1
Format                           : MPEG Audio
Format version                   : Version 1
Format profile                   : Layer 3
Codec ID                         : 55
Codec ID/Hint                    : MP3
Duration                         : 1h 13mn
Bit rate mode                    : Variable
Bit rate                         : 130 Kbps
Nominal bit rate                 : 128 Kbps
Channel(s)                       : 2 channels
Sampling rate                    : 48.0 KHz
Resolution                       : 16 bits
Stream size                      : 68.8 MiB (10%)
Alignment                        : Aligned on interleaves
Interleave, duration             : 24 ms (0.60 video frame)
Interleave, preload duration     : 530 ms
Writing library                  : LAME3.90.
Encoding settings                : -m j -V 4 -q 2 -lowpass 17.6 --abr 128

